<?xml version="1.0" encoding="utf-8"?>
<!-- Generator: Adobe Adobe Illustrator 29.2.0, SVG Export Plug-In . SVG Version: 6.00 Build 0)  -->
<svg version="1.1" id="Layer_1" xmlns="http://www.w3.org/2000/svg" xmlns:xlink="http://www.w3.org/1999/xlink" x="0px" y="0px"
	 width="500px" height="500px" viewBox="0 0 500 500" style="enable-background:new 0 0 500 500;" xml:space="preserve">
<style type="text/css">
	.st0{fill:#050304;}
	.st1{fill:#FFFFFF;stroke:#FFFFFF;stroke-miterlimit:10;}
</style>
<path class="st1" d="M415.56,170.23c-3.42-11.05-8.58-21.69-14.58-31.99c-8.43-15.02-20.54-28.78-35.7-39.93
	c-6.47-4.25-13.02-8.47-20.28-11.82c-12.04-5.32-24.94-9.5-38.37-11.93c-8.02-1.24-16.15-2.22-24.31-2.3
	c-9.15-0.1-18.29,0.81-27.31,2.03c-20.27,3.04-39.47,9.8-57.17,18.15c-10.42,5.22-20.15,11.28-29.62,17.54
	c-10.73,7.35-21.25,14.95-30.68,23.39c-10.63,9.4-20.08,19.63-28.8,30.21c-13.9,16.71-24.17,35.37-30.19,54.86
	c-6.31,22.54-9.2,45.74-7.47,68.82c1.11,14.91,3.02,29.9,7.87,44.37c4.39,12.4,11.16,24.19,17.65,35.96
	c14.04,25.09,34.95,48.26,63.36,64.06c13.55,7.86,28.93,13.37,44.42,18.29c13.5,4.17,27.91,6.4,42.3,7.36
	c13.43-0.44,26.75-2.3,40.07-3.73c26.21-3.46,54.02-7.58,75.85-20.45c11.38-6.67,19.18-16.54,23.93-27.06c1.21-2.63,2.25-5.3,3.15-8
	c-2.21,2.87-4.58,5.68-7.14,8.36c-19.8,21.13-44.04,22.81-74.86,23.58c-19.23,0.2-38.48-0.26-57.68-1.05
	c-0.13-0.01-0.26-0.02-0.39-0.03c-1.38-0.24-2.73-0.57-4.08-0.89c-14.36-3.5-13.96-3.43-19.51-5.26
	c-5.99-2.19-11.84-4.61-17.59-7.18c-8.8-3.96-17.43-8.21-25.47-13.12c-4.28-2.7-8.35-5.6-12.25-8.65
	c-4.94-3.88-9.62-7.97-13.95-12.29c-3.73-4.01-7.14-8.2-10.3-12.51c-4.87-6.49-9.05-13.3-12.98-20.19
	c-4.26-7.8-2.79-4.55-9.48-18.48c-2.97-6.62-4.99-13.49-6.6-20.4c-0.3-1.25-0.54-2.51-0.79-3.76c-1.05-7.13-1.83-14.29-2.19-21.46
	c-0.7-12.74-0.36-25.54,1.69-38.19c1.67-9.32,3.93-18.59,7.35-27.61c4.1-10.98,7.53-16.1,7.69-16.56c3.65-6.09,7.76-12,12.28-17.7
	c15.56-19.29,24.48-28.25,51.86-47.56c2.92-2.04,5.89-4.02,8.9-5.97c1.38-0.84,2.78-1.67,4.18-2.49c6.25-3.71,12.86-7,19.7-9.95
	c3.97-1.71,8.03-3.28,12.14-4.76c9.03-2.83,18.41-4.99,27.97-6.32c0.75-0.07,1.51-0.14,2.26-0.19c6.59-0.47,13.21-0.5,19.8-0.04
	c7.83,1.07,15.48,2.87,22.92,5.11c0.04,0.01,0.08,0.03,0.12,0.04c6.42,2.4,12.69,5.11,18.39,8.51c0,0,0.01,0,0.01,0.01
	c4.17,2.7,8.04,5.69,11.61,8.89c1.54,1.35,3.01,2.74,4.45,4.15c1.36,1.5,2.72,3.01,4.03,4.54c4.84,5.85,8.77,12.14,12.4,18.51
	c0.54,0.94,1.06,1.88,1.58,2.83c3.26,6.52,5.85,13.25,8.02,20.06c1.63,5.39,2.78,10.85,3.77,16.34c0.88,5.93,1.43,11.89,1.72,17.85
	c0.58,11.25,0.19,22.55-1.46,33.74c-0.12,0.61-0.24,1.23-0.37,1.84c-1.39,6.69-3.09,13.36-5.64,19.84
	c-0.68,1.75-1.44,3.47-2.26,5.18c-2.24,3.98-4.83,7.82-7.9,11.44c-0.7,0.83-1.42,1.66-2.16,2.47c-2.31,2.25-4.75,4.42-7.48,6.35
	c-1.19,0.66-2.4,1.28-3.68,1.83c-0.75,0.19-1.51,0.36-2.28,0.52c-0.31,0-0.61,0.02-0.92,0.01c-1.11-0.19-2.22-0.42-3.3-0.7
	c-1.49-0.61-2.94-1.29-4.33-2.03c-1.29-0.94-2.52-1.93-3.67-2.98c-2.41-2.82-4.35-5.88-6.14-8.97c-0.43-0.75-0.83-1.51-1.24-2.26
	c-2.25-4.37-4.46-8.76-7.09-13c-3.61-5.87-8.7-11.38-15.9-14.66c-2.05-0.66-4.05-1.44-6.13-2.03c-2.38-0.34-4.81-0.59-7.21-0.74
	c-2.5,0.24-5.05,0.39-7.5,0.83c-2.69,0.9-5.54,1.62-7.97,2.92c-4.83,2.65-9.04,5.92-12.51,9.7c-6.75,6.66-2.48,3.38-12.64,11.8
	c-0.58,0.45-1.18,0.88-1.79,1.31c-1.92,1.06-3.92,2.02-6.01,2.85c-0.18,0.05-0.35,0.11-0.53,0.15c-2,0.54-4.06,0.94-6.14,1.25
	c-1.21,0.08-2.42,0.13-3.64,0.16c-2.11,0.03-4.23-0.04-6.33-0.18c-0.55-0.09-1.1-0.17-1.65-0.29c-1.34-0.24-2.65-0.57-3.94-0.94
	c-1.16-0.45-2.29-0.95-3.36-1.53c-1.74-1.25-3.36-2.61-4.91-4.02c-1.6-1.89-2.99-3.88-4.19-5.95c-2.19-4.6-3.92-9.35-5.02-14.19
	c-0.1-0.49-0.2-0.99-0.3-1.48c-0.67-5.17-0.66-10.4-0.04-15.58c1.12-5.67,2.91-11.26,5.47-16.62c0.08-0.14,0.16-0.28,0.23-0.42
	c2.52-4.04,5.49-7.89,8.91-11.48l0.07-0.07c4.25-4.25,9.03-8.15,14.09-11.78c0.22-0.15,0.41-0.27,0.58-0.38
	c1.09-0.6,2.25-1.11,3.44-1.57c1.37-0.41,2.77-0.77,4.2-1.02c0.26-0.04,0.52-0.07,0.78-0.11c2.67-0.21,5.36-0.28,8.04-0.12
	c2.34,0.35,4.64,0.86,6.88,1.49c2.57,0.98,4.95,2.24,7.22,3.61c3.25,2.16,6.22,4.57,8.94,7.16c4.94,5.58,8.69,11.89,11.26,17.45
	c2.22,4.83,4.31,9.75,5.12,14.88c1.28-6.42,0.69-12.97-0.26-19.39c-1.39-9.61-4.8-19.23-12.08-27.08
	c-5.64-6.66-13.73-11.85-23.29-14.42c-10.3-2.56-21.9-2.9-31.88,0.67c-8.11,2.73-15.1,7.23-21.97,11.54
	c-12.65,8.25-22.68,19-28.33,31.28c-5.66,10.91-7.99,22.93-7.55,34.71c0.59,7.05,1.81,14.1,4.26,20.9
	c1.45,4.05,3.69,7.89,5.76,11.75c3.12,5.12,7.67,9.61,12.49,13.78c2.81,2.34,6.22,4.15,9.4,6.15c2.92,1.71,6.31,2.75,9.62,3.87
	c3.26,1.16,6.56,2.17,10.06,2.75c5.78,0.83,11.65,1.48,17.53,1.47c5.51-0.06,11-0.73,16.42-1.47c6.03-0.9,11.61-3.05,17.16-5.06
	c8.77-3.76,16.17-9.08,22.63-15.08c2.31,4.46,4.71,8.89,7.79,13.04c3.11,3.97,6.75,7.75,10.85,11.1c3.75,2.82,8.03,5.39,12.45,7.58
	c3.45,1.56,7.16,2.74,10.84,3.91c5.55,1.65,11.6,2.11,17.47,2.39c4.14-0.22,8.32-0.62,12.34-1.47c4.11-0.97,8.07-2.39,11.9-3.91
	c5.28-2.51,10.15-5.63,14.65-8.97c7.36-6.26,13.89-13.23,19.08-20.76c7.53-11.64,12.48-24.23,14.97-37.18
	C425.55,230.31,423.84,199.59,415.56,170.23z"/>
</svg>
